HIERARCHY
ROOT hip
{
  OFFSET 0 0 0
  CHANNELS 6 Xposition Yposition Zposition Zrotation Yrotation Xrotation
  JOINT abdomen
  {
    OFFSET 0 20.6881 -0.73152
    CHANNELS 3 Zrotation Xrotation Yrotation
    JOINT chest
    {
      OFFSET 0 11.7043 -0.48768
      CHANNELS 3 Zrotation Xrotation Yrotation
      JOINT neck
      {
        OFFSET 0 22.1894 -2.19456
        CHANNELS 3 Zrotation Xrotation Yrotation
        JOINT head
        {
          OFFSET -0.24384 7.07133 1.2192
          CHANNELS 3 Zrotation Xrotation Yrotation
          JOINT leftEye
          {
            OFFSET 4.14528 8.04674 8.04672
            CHANNELS 3 Zrotation Xrotation Yrotation
            End Site
            {
              OFFSET 1 0 0
            }
          }
          JOINT rightEye
          {
            OFFSET -3.6576 8.04674 8.04672
            CHANNELS 3 Zrotation Xrotation Yrotation
            End Site
            {
              OFFSET 1 0 0
            }
          }
        }
      }
      JOINT rCollar
      {
        OFFSET -2.68224 19.2634 -4.8768
        CHANNELS 3 Zrotation Xrotation Yrotation
        JOINT rShldr
        {
          OFFSET -8.77824 -1.95073 1.46304
          CHANNELS 3 Zrotation Xrotation Yrotation
          JOINT rForeArm
          {
            OFFSET -28.1742 -1.7115 0.48768
            CHANNELS 3 Zrotation Xrotation Yrotation
            JOINT rHand
            {
              OFFSET -22.5879 0.773209 7.07136
              CHANNELS 3 Zrotation Xrotation Yrotation
              JOINT rThumb1
              {
                OFFSET -1.2192 -0.487915 3.41376
                CHANNELS 3 Zrotation Xrotation Yrotation
                JOINT rThumb2
                {
                  OFFSET -3.37035 -0.52449 3.41376
                  CHANNELS 3 Zrotation Xrotation Yrotation
                  End Site
                  {
                    OFFSET -1.78271 -1.18214 1.43049
                  }
                }
              }
              JOINT rIndex1
              {
                OFFSET -7.75947 0.938293 5.60832
                CHANNELS 3 Zrotation Xrotation Yrotation
                JOINT rIndex2
                {
                  OFFSET -2.54057 -0.884171 1.56538
                  CHANNELS 3 Zrotation Xrotation Yrotation
                  End Site
                  {
                    OFFSET -1.62519 -0.234802 1.16502
                  }
                }
              }
              JOINT rMid1
              {
                OFFSET -8.24714 1.18213 3.41376
                CHANNELS 3 Zrotation Xrotation Yrotation
                JOINT rMid2
                {
                  OFFSET -3.10165 -0.590103 1.0647
                  CHANNELS 3 Zrotation Xrotation Yrotation
                  End Site
                  {
                    OFFSET -2.48547 -0.328903 0.83742
                  }
                }
              }
              JOINT rRing1
              {
                OFFSET -8.82822 0.546677 1.51678
                CHANNELS 3 Zrotation Xrotation Yrotation
                JOINT rRing2
                {
                  OFFSET -2.60934 -0.819778 -0.0198488
                  CHANNELS 3 Zrotation Xrotation Yrotation
                  End Site
                  {
                    OFFSET -2.33842 -0.294052 0.168128
                  }
                }
              }
              JOINT rPinky1
              {
                OFFSET -8.27202 -0.0477905 -0.4584
                CHANNELS 3 Zrotation Xrotation Yrotation
                JOINT rPinky2
                {
                  OFFSET -1.82734 -0.647385 -0.700984
                  CHANNELS 3 Zrotation Xrotation Yrotation
                  End Site
                  {
                    OFFSET -1.69225 -0.51767 -0.607171
                  }
                }
              }
            }
          }
        }
      }
      JOINT lCollar
      {
        OFFSET 2.68224 19.2634 -4.8768
        CHANNELS 3 Zrotation Xrotation Yrotation
        JOINT lShldr
        {
          OFFSET 8.77824 -1.95073 1.46304
          CHANNELS 3 Zrotation Xrotation Yrotation
          JOINT lForeArm
          {
            OFFSET 28.1742 -1.7115 0.48768
            CHANNELS 3 Zrotation Xrotation Yrotation
            JOINT lHand
            {
              OFFSET 22.5879 0.773209 7.07136
              CHANNELS 3 Zrotation Xrotation Yrotation
              JOINT lThumb1
              {
                OFFSET 1.2192 -0.487915 3.41376
                CHANNELS 3 Zrotation Xrotation Yrotation
                JOINT lThumb2
                {
                  OFFSET 3.37035 -0.52449 3.41376
                  CHANNELS 3 Zrotation Xrotation Yrotation
                  End Site
                  {
                    OFFSET 1.78271 -1.18214 1.43049
                  }
                }
              }
              JOINT lIndex1
              {
                OFFSET 7.75947 0.938293 5.60832
                CHANNELS 3 Zrotation Xrotation Yrotation
                JOINT lIndex2
                {
                  OFFSET 2.54057 -0.884171 1.56538
                  CHANNELS 3 Zrotation Xrotation Yrotation
                  End Site
                  {
                    OFFSET 1.62519 -0.234802 1.16502
                  }
                }
              }
              JOINT lMid1
              {
                OFFSET 8.24714 1.18213 3.41376
                CHANNELS 3 Zrotation Xrotation Yrotation
                JOINT lMid2
                {
                  OFFSET 3.10165 -0.590103 1.0647
                  CHANNELS 3 Zrotation Xrotation Yrotation
                  End Site
                  {
                    OFFSET 2.48547 -0.328903 0.83742
                  }
                }
              }
              JOINT lRing1
              {
                OFFSET 8.82822 0.546677 1.51678
                CHANNELS 3 Zrotation Xrotation Yrotation
                JOINT lRing2
                {
                  OFFSET 2.60934 -0.819778 -0.0198488
                  CHANNELS 3 Zrotation Xrotation Yrotation
                  End Site
                  {
                    OFFSET 2.33842 -0.294052 0.168128
                  }
                }
              }
              JOINT lPinky1
              {
                OFFSET 8.27202 -0.0477905 -0.4584
                CHANNELS 3 Zrotation Xrotation Yrotation
                JOINT lPinky2
                {
                  OFFSET 1.82734 -0.647385 -0.700984
                  CHANNELS 3 Zrotation Xrotation Yrotation
                  End Site
                  {
                    OFFSET 1.69225 -0.51767 -0.607171
                  }
                }
              }
            }
          }
        }
      }
    }
  }
  JOINT rButtock
  {
    OFFSET -8.77824 4.35084 1.2192
    CHANNELS 3 Zrotation Xrotation Yrotation
    JOINT rThigh
    {
      OFFSET 0 -1.70687 -2.19456
      CHANNELS 3 Zrotation Xrotation Yrotation
      JOINT rShin
      {
        OFFSET 0 -36.8199 0.73152
        CHANNELS 3 Zrotation Xrotation Yrotation
        JOINT rFoot
        {
          OFFSET 0.73152 -45.1104 -5.12064
          CHANNELS 3 Zrotation Xrotation Yrotation
          End Site
          {
            OFFSET -1.1221 -3.69964 12.103
          }
        }
      }
    }
  }
  JOINT lButtock
  {
    OFFSET 8.77824 4.35084 1.2192
    CHANNELS 3 Zrotation Xrotation Yrotation
    JOINT lThigh
    {
      OFFSET 0 -1.70687 -2.19456
      CHANNELS 3 Zrotation Xrotation Yrotation
      JOINT lShin
      {
        OFFSET 0 -36.8199 0.73152
        CHANNELS 3 Zrotation Xrotation Yrotation
        JOINT lFoot
        {
          OFFSET -0.73152 -45.1104 -5.12064
          CHANNELS 3 Zrotation Xrotation Yrotation
          End Site
          {
            OFFSET 1.1221 -3.69964 12.103
          }
        }
      }
    }
  }
}
MOTION
Frames:	4
Frame Time:	0.03333
0.0 0.0 0.0 0.0 0.0 0.0 0.0 0.0 0.0 0.0 0.0 0.0 0.0 0.0 0.0 0.0 0.0 0.0 0.0 0.0 0.0 0.0 0.0 0.0 0.0 0.0 0.0 0.0 0.0 0.0 0.0 0.0 0.0 0.0 0.0 0.0 0.0 0.0 0.0 0.0 0.0 0.0 0.0 0.0 0.0 0.0 0.0 0.0 0.0 0.0 0.0 0.0 0.0 0.0 0.0 0.0 0.0 0.0 0.0 0.0 0.0 0.0 0.0 0.0 0.0 0.0 0.0 0.0 0.0 0.0 0.0 0.0 0.0 0.0 0.0 0.0 0.0 0.0 0.0 0.0 0.0 0.0 0.0 0.0 0.0 0.0 0.0 0.0 0.0 0.0 0.0 0.0 0.0 0.0 0.0 0.0 0.0 0.0 0.0 0.0 0.0 0.0 0.0 0.0 0.0 0.0 0.0 0.0 0.0 0.0 0.0 0.0 0.0 0.0 0.0 0.0 0.0 0.0 0.0 0.0 0.0 0.0 0.0 0.0 0.0 0.0 0.0 0.0 0.0 0.0 0.0 0.0
4.0565 65.7983 1.1899 172.25362 -2.627071 -173.02808 -8.495619 11.0196 -141.993641 5.045115 6.0887 145.750663 6.895197 22.530199 118.547048 -28.919775 27.444028 -124.927784 0.001636 0.0 0.001551 -0.004049 -0.0 0.002146 0.163321 -0.990095 -0.217923 -98.044573 29.398499 82.494008 64.481565 22.976167 -151.276573 179.407437 19.519216 147.550953 3.024619 -3.006786 -0.387611 -60.11837 30.072817 53.570447 -90.225325 41.072494 75.796829 10.765849 -8.111893 -5.998543 -0.287282 0.832596 0.160747 168.043312 -64.094306 133.243782 -77.742761 72.903767 95.869955 -159.797641 -3.479763 176.821351 -77.069312 -51.586537 -75.530522 -151.804184 29.599885 -146.247366 155.460102 -3.22783 -161.777425 -121.718045 -20.598289 -161.56071 -172.262309 21.464436 -49.120036 156.897275 24.58319 -133.670082 -88.927992 -50.830569 -37.600396 25.056036 -11.516956 17.280078 -60.463284 -70.522913 -15.714489 52.319899 52.511829 -42.931405 -6.533018 -20.414935 2.718246 163.358967 -4.796221 -143.337993 72.758067 -72.142398 89.772635 -14.727598 0.477261 4.522752 -3.540833 10.04191 -3.21728 -12.009653 32.826035 -7.254223 0.002488 -0.000506 0.002488 -54.75608 -66.422283 -142.674482 -79.418338 -12.2839 8.800701 45.85799 45.095394 37.969761 0.000906 0.00124 0.000906 14.88249 4.229108 -74.490942 -28.141727 10.437743 98.56554 -149.605165 -25.987815 -9.371443
7.3497 66.8031 1.5224 172.123703 -7.610936 -171.162762 -9.725054 16.461955 2.388544 0.451671 -12.119508 2.826577 -6.709055 9.274308 -10.169167 5.892036 -24.990729 5.721262 -0.000772 -0.0 0.00051 -0.000359 0.0 -0.000448 -59.832611 -86.721208 -81.633578 -109.007148 -0.301652 159.427026 -113.835831 -71.090127 -45.012393 -3.107977 21.774653 1.722115 -5.434186 5.264747 1.07774 -155.526893 -63.68012 114.461767 -166.787088 -43.920985 122.06851 -149.992306 2.333263 117.854762 -169.090561 -33.247485 145.373492 -42.546668 58.278957 36.549741 -0.015463 -1.32338 -0.414374 9.807902 -62.545836 -9.19355 -81.323299 -51.185169 -79.741108 -4.639127 -17.826085 -7.910577 -3.205919 -26.010392 5.105749 24.159742 -64.13411 94.05445 103.186357 45.910327 140.295506 -3.198545 -62.081897 6.88761 1.509832 1.482877 -0.251207 -1.688683 -1.720223 0.360995 138.494855 4.896741 -114.864722 80.582666 56.842213 -60.696611 125.643982 49.840064 -115.274305 1.199618 12.636155 -2.448691 0.001235 -0.01843 0.006468 -9.711354 -62.549487 9.183796 152.502354 38.523439 147.798107 -3.222697 3.627553 0.801293 -0.0 -0.0004 -0.002136 -50.608116 -68.062378 -180.0 -77.798313 -41.001018 -153.272753 -2.506414 31.205646 -108.213865 179.995528 75.748889 0.00306 -132.566735 70.007623 45.179251 30.377915 -9.426013 -33.80722 -89.374683 14.433296 1.598934
11.365699999999999 67.99159999999999 1.4523 171.521757 -15.486536 -169.156873 -7.469856 15.045583 -96.996512 9.544561 -0.822165 103.025254 6.252377 12.415256 60.31542 -31.626068 -3.877046 -61.093474 -0.003864 -0.0 0.000485 0.001833 0.0 0.0002 0.023066 -0.138728 -0.030113 -174.726118 4.408105 119.43743 1.351133 -22.186997 -107.807868 156.294375 -37.572747 138.366765 -0.543936 0.53619 0.086424 10.757523 -15.220423 -7.963856 16.331953 -29.347819 -5.839255 7.374673 10.567563 0.471794 -162.802403 -13.379438 144.139847 -163.509323 -5.366296 143.024781 -78.572124 -72.040653 -95.867573 14.64235 14.509193 -2.890143 -86.001517 -50.498483 -84.370833 -3.791822 -16.207772 -7.194361 120.996236 60.37994 -124.634562 104.253389 27.114261 -76.183645 -3.087873 -16.526086 134.971915 165.032405 10.321499 -139.661486 121.364937 30.32997 -71.958071 135.574829 -13.08987 -70.760542 160.014856 -33.011776 -122.698964 10.466842 36.182307 -3.142061 -173.12217 -66.29763 -137.613268 163.525681 -4.950977 -143.087931 -0.001695 0.063669 -0.020698 155.412504 -1.037436 -171.973083 9.81453 -20.293762 9.28884 23.960467 -41.358092 25.072503 -0.000519 -0.001877 -0.000519 -39.871738 -67.261471 -95.809154 -73.288388 29.48745 161.93178 -137.131296 -64.96751 134.745117 0.000625 -9.9e-05 -0.0 17.284169 -5.943543 94.896965 28.769938 -12.817627 -36.021276 -83.045545 23.294107 1.189244
